<?xml version="1.0" encoding="UTF-8"?>
<svg xmlns="http://www.w3.org/2000/svg" viewBox="0 0 593.07 697.12">
  <g id="WatermelonSlice">
    <path id="InnerMelon_Color1" data-name="InnerMelon Color1" d="M249.37,381.4c68.54,111.39,258.41,224.5,225.16,244.96-33.25,20.46-254.26-42.53-340.84-140.55-91.07-103.1-42.61-347.91-9.36-368.37,33.25-20.46,56.51,152.57,125.05,263.95Z" style="fill: #44b349;"/>
    <path id="InnerMelon_Color2" data-name="InnerMelon Color2" d="M176.63,442.87c-82.75-133.89-58.53-355.33-38.43-367.75,20.1-12.42,88.37,115.56,171.12,249.45,82.75,133.89,202.49,284.89,182.39,297.31-20.1,12.42-232.33-45.12-315.08-179.01Z" style="fill: #ee3025;"/>
    <path id="InnerMelon_Color3" data-name="InnerMelon Color3" d="M184.43,285.26c-45.07-72.93-42.45-187.01-33.32-192.65s47.02,63.63,92.1,136.56c45.07,72.93,108.56,156.25,99.44,161.89-9.12,5.64-113.14-32.87-158.21-105.8Z" style="fill: #f26a6b;"/>
    <path id="OuterOutline" d="M153.27,53.89c-7.42,9.26-134.66,173.63-60.32,354,62.25,151.05,238.57,247.05,427.27,223.83" style="fill: none; stroke: #231f20; stroke-miterlimit: 10; stroke-width: 25px;"/>
    <line id="InnerOutline" x1="152.61" y1="68.34" x2="508.2" y2="626.36" style="fill: none; stroke: #231f20; stroke-miterlimit: 10; stroke-width: 25px;"/>
  </g>
  <g id="Seeds">
    <ellipse id="Seed9" cx="172.66" cy="230.84" rx="13.21" ry="6.61" transform="translate(-115.44 220.91) rotate(-51.23)"/>
    <ellipse id="Seed8" cx="221.69" cy="304.1" rx="6.61" ry="13.21" transform="translate(-120.57 460.57) rotate(-78.48)"/>
    <ellipse id="Seed7" cx="162.92" cy="284.98" rx="13.21" ry="6.61" transform="translate(-103.88 93.74) rotate(-24.61)"/>
    <ellipse id="Seed6" cx="188.77" cy="366.55" rx="6.61" ry="13.21" transform="translate(-37.95 22.18) rotate(-6.11)"/>
    <ellipse id="Seed5" cx="275.2" cy="383.86" rx="13.21" ry="6.61" transform="translate(-165.73 214.56) rotate(-33.36)"/>
    <ellipse id="Seed4" cx="220.06" cy="411.78" rx="13.21" ry="6.61" transform="translate(-242.72 473.65) rotate(-69.49)"/>
    <ellipse id="Seed3" cx="335.34" cy="530" rx="13.21" ry="6.61" transform="translate(-285.3 439.7) rotate(-49.4)"/>
    <ellipse id="Seed2" cx="288.68" cy="455.21" rx="6.61" ry="13.21" transform="translate(-220.89 630.93) rotate(-76.64)"/>
    <ellipse id="Seed1" cx="346.81" cy="476.2" rx="13.21" ry="6.61" transform="translate(-157.33 171.43) rotate(-22.78)"/>
  </g>
</svg>